<?xml version="1.0" encoding="UTF-8" standalone="no"?>
<!DOCTYPE svg PUBLIC "-//W3C//DTD SVG 1.1//EN"
 "http://www.w3.org/Graphics/SVG/1.1/DTD/svg11.dtd">
<!-- Generated by graphviz version 2.47.3 (20210619.1520)
 -->
<!-- Title: dependencies Pages: 1 -->
<svg width="2319pt" height="247pt"
 viewBox="0.00 0.00 2319.00 246.80" xmlns="http://www.w3.org/2000/svg" xmlns:xlink="http://www.w3.org/1999/xlink">
<g id="graph0" class="graph" transform="scale(1 1) rotate(0) translate(4 242.8)">
<title>dependencies</title>
<polygon fill="white" stroke="transparent" points="-4,4 -4,-242.8 2315,-242.8 2315,4 -4,4"/>
<text text-anchor="middle" x="1155.5" y="-8.2" font-family="sans-serif" font-size="14.00">dependencies</text>
<g id="clust1" class="cluster">
<title>cluster_AppModule</title>
<polygon fill="none" stroke="black" stroke-dasharray="1,5" points="8,-32.8 8,-230.8 2303,-230.8 2303,-32.8 8,-32.8"/>
</g>
<g id="clust15" class="cluster">
<title>cluster_AppModule_imports</title>
<polygon fill="none" stroke="black" points="2151,-40.8 2151,-92.8 2295,-92.8 2295,-40.8 2151,-40.8"/>
</g>
<g id="clust17" class="cluster">
<title>cluster_AppModule_bootstrap</title>
<polygon fill="none" stroke="black" points="1141,-170.8 1141,-222.8 1265,-222.8 1265,-170.8 1141,-170.8"/>
</g>
<g id="clust18" class="cluster">
<title>cluster_AppModule_providers</title>
<polygon fill="none" stroke="black" points="1873,-40.8 1873,-92.8 2143,-92.8 2143,-40.8 1873,-40.8"/>
</g>
<g id="clust2" class="cluster">
<title>cluster_AppModule_declarations</title>
<polygon fill="none" stroke="black" points="16,-40.8 16,-92.8 1865,-92.8 1865,-40.8 16,-40.8"/>
</g>
<!-- AppComponent -->
<g id="node1" class="node">
<title>AppComponent</title>
<polygon fill="#ffffb3" stroke="black" points="1856.94,-84.8 1751.06,-84.8 1751.06,-48.8 1856.94,-48.8 1856.94,-84.8"/>
<text text-anchor="middle" x="1804" y="-62.6" font-family="Times,serif" font-size="14.00">AppComponent</text>
</g>
<!-- AppModule -->
<g id="node13" class="node">
<title>AppModule</title>
<polygon fill="#8dd3c7" stroke="black" points="1244.66,-149.8 1241.66,-153.8 1220.66,-153.8 1217.66,-149.8 1161.34,-149.8 1161.34,-113.8 1244.66,-113.8 1244.66,-149.8"/>
<text text-anchor="middle" x="1203" y="-127.6" font-family="Times,serif" font-size="14.00">AppModule</text>
</g>
<!-- AppComponent&#45;&gt;AppModule -->
<g id="edge1" class="edge">
<title>AppComponent&#45;&gt;AppModule</title>
<path fill="none" stroke="black" d="M1804,-84.91C1804,-104.14 1804,-131.8 1804,-131.8 1804,-131.8 1254.78,-131.8 1254.78,-131.8"/>
<polygon fill="black" stroke="black" points="1254.78,-128.3 1244.78,-131.8 1254.78,-135.3 1254.78,-128.3"/>
</g>
<!-- CaseListComponent -->
<g id="node2" class="node">
<title>CaseListComponent</title>
<polygon fill="#ffffb3" stroke="black" points="1733.32,-84.8 1602.68,-84.8 1602.68,-48.8 1733.32,-48.8 1733.32,-84.8"/>
<text text-anchor="middle" x="1668" y="-62.6" font-family="Times,serif" font-size="14.00">CaseListComponent</text>
</g>
<!-- CaseListComponent&#45;&gt;AppModule -->
<g id="edge2" class="edge">
<title>CaseListComponent&#45;&gt;AppModule</title>
<path fill="none" stroke="black" d="M1668,-85.1C1668,-103.07 1668,-127.8 1668,-127.8 1668,-127.8 1254.67,-127.8 1254.67,-127.8"/>
<polygon fill="black" stroke="black" points="1254.67,-124.3 1244.67,-127.8 1254.67,-131.3 1254.67,-124.3"/>
</g>
<!-- DashboardComponent -->
<g id="node3" class="node">
<title>DashboardComponent</title>
<polygon fill="#ffffb3" stroke="black" points="1584.97,-84.8 1443.03,-84.8 1443.03,-48.8 1584.97,-48.8 1584.97,-84.8"/>
<text text-anchor="middle" x="1514" y="-62.6" font-family="Times,serif" font-size="14.00">DashboardComponent</text>
</g>
<!-- DashboardComponent&#45;&gt;AppModule -->
<g id="edge3" class="edge">
<title>DashboardComponent&#45;&gt;AppModule</title>
<path fill="none" stroke="black" d="M1514,-84.83C1514,-101.2 1514,-122.8 1514,-122.8 1514,-122.8 1254.94,-122.8 1254.94,-122.8"/>
<polygon fill="black" stroke="black" points="1254.94,-119.3 1244.94,-122.8 1254.94,-126.3 1254.94,-119.3"/>
</g>
<!-- FooterComponent -->
<g id="node4" class="node">
<title>FooterComponent</title>
<polygon fill="#ffffb3" stroke="black" points="1424.88,-84.8 1307.12,-84.8 1307.12,-48.8 1424.88,-48.8 1424.88,-84.8"/>
<text text-anchor="middle" x="1366" y="-62.6" font-family="Times,serif" font-size="14.00">FooterComponent</text>
</g>
<!-- FooterComponent&#45;&gt;AppModule -->
<g id="edge4" class="edge">
<title>FooterComponent&#45;&gt;AppModule</title>
<path fill="none" stroke="black" d="M1366,-84.99C1366,-99.98 1366,-118.8 1366,-118.8 1366,-118.8 1254.98,-118.8 1254.98,-118.8"/>
<polygon fill="black" stroke="black" points="1254.98,-115.3 1244.98,-118.8 1254.98,-122.3 1254.98,-115.3"/>
</g>
<!-- ForgotPasswordComponent -->
<g id="node5" class="node">
<title>ForgotPasswordComponent</title>
<polygon fill="#ffffb3" stroke="black" points="1289.32,-84.8 1116.68,-84.8 1116.68,-48.8 1289.32,-48.8 1289.32,-84.8"/>
<text text-anchor="middle" x="1203" y="-62.6" font-family="Times,serif" font-size="14.00">ForgotPasswordComponent</text>
</g>
<!-- ForgotPasswordComponent&#45;&gt;AppModule -->
<g id="edge5" class="edge">
<title>ForgotPasswordComponent&#45;&gt;AppModule</title>
<path fill="none" stroke="black" d="M1203,-84.91C1203,-84.91 1203,-103.79 1203,-103.79"/>
<polygon fill="black" stroke="black" points="1199.5,-103.79 1203,-113.79 1206.5,-103.79 1199.5,-103.79"/>
</g>
<!-- HeaderComponent -->
<g id="node6" class="node">
<title>HeaderComponent</title>
<polygon fill="#ffffb3" stroke="black" points="1098.74,-84.8 977.26,-84.8 977.26,-48.8 1098.74,-48.8 1098.74,-84.8"/>
<text text-anchor="middle" x="1038" y="-62.6" font-family="Times,serif" font-size="14.00">HeaderComponent</text>
</g>
<!-- HeaderComponent&#45;&gt;AppModule -->
<g id="edge6" class="edge">
<title>HeaderComponent&#45;&gt;AppModule</title>
<path fill="none" stroke="black" d="M1038,-84.99C1038,-99.98 1038,-118.8 1038,-118.8 1038,-118.8 1150.94,-118.8 1150.94,-118.8"/>
<polygon fill="black" stroke="black" points="1150.94,-122.3 1160.94,-118.8 1150.94,-115.3 1150.94,-122.3"/>
</g>
<!-- MyCasesComponent -->
<g id="node7" class="node">
<title>MyCasesComponent</title>
<polygon fill="#ffffb3" stroke="black" points="958.93,-84.8 825.07,-84.8 825.07,-48.8 958.93,-48.8 958.93,-84.8"/>
<text text-anchor="middle" x="892" y="-62.6" font-family="Times,serif" font-size="14.00">MyCasesComponent</text>
</g>
<!-- MyCasesComponent&#45;&gt;AppModule -->
<g id="edge7" class="edge">
<title>MyCasesComponent&#45;&gt;AppModule</title>
<path fill="none" stroke="black" d="M892,-84.83C892,-101.2 892,-122.8 892,-122.8 892,-122.8 1151.06,-122.8 1151.06,-122.8"/>
<polygon fill="black" stroke="black" points="1151.06,-126.3 1161.06,-122.8 1151.06,-119.3 1151.06,-126.3"/>
</g>
<!-- NewCaseModalComponent -->
<g id="node8" class="node">
<title>NewCaseModalComponent</title>
<polygon fill="#ffffb3" stroke="black" points="807.52,-84.8 636.48,-84.8 636.48,-48.8 807.52,-48.8 807.52,-84.8"/>
<text text-anchor="middle" x="722" y="-62.6" font-family="Times,serif" font-size="14.00">NewCaseModalComponent</text>
</g>
<!-- NewCaseModalComponent&#45;&gt;AppModule -->
<g id="edge8" class="edge">
<title>NewCaseModalComponent&#45;&gt;AppModule</title>
<path fill="none" stroke="black" d="M722,-85.1C722,-103.07 722,-127.8 722,-127.8 722,-127.8 1151.16,-127.8 1151.16,-127.8"/>
<polygon fill="black" stroke="black" points="1151.16,-131.3 1161.16,-127.8 1151.16,-124.3 1151.16,-131.3"/>
</g>
<!-- SignInComponent -->
<g id="node9" class="node">
<title>SignInComponent</title>
<polygon fill="#ffffb3" stroke="black" points="618.17,-84.8 499.83,-84.8 499.83,-48.8 618.17,-48.8 618.17,-84.8"/>
<text text-anchor="middle" x="559" y="-62.6" font-family="Times,serif" font-size="14.00">SignInComponent</text>
</g>
<!-- SignInComponent&#45;&gt;AppModule -->
<g id="edge9" class="edge">
<title>SignInComponent&#45;&gt;AppModule</title>
<path fill="none" stroke="black" d="M559,-84.91C559,-104.14 559,-131.8 559,-131.8 559,-131.8 1151.24,-131.8 1151.24,-131.8"/>
<polygon fill="black" stroke="black" points="1151.24,-135.3 1161.24,-131.8 1151.24,-128.3 1151.24,-135.3"/>
</g>
<!-- SignUpComponent -->
<g id="node10" class="node">
<title>SignUpComponent</title>
<polygon fill="#ffffb3" stroke="black" points="482.11,-84.8 357.89,-84.8 357.89,-48.8 482.11,-48.8 482.11,-84.8"/>
<text text-anchor="middle" x="420" y="-62.6" font-family="Times,serif" font-size="14.00">SignUpComponent</text>
</g>
<!-- SignUpComponent&#45;&gt;AppModule -->
<g id="edge10" class="edge">
<title>SignUpComponent&#45;&gt;AppModule</title>
<path fill="none" stroke="black" d="M420,-84.83C420,-105.57 420,-136.8 420,-136.8 420,-136.8 1151.18,-136.8 1151.18,-136.8"/>
<polygon fill="black" stroke="black" points="1151.18,-140.3 1161.18,-136.8 1151.18,-133.3 1151.18,-140.3"/>
</g>
<!-- UserProfileComponent -->
<g id="node11" class="node">
<title>UserProfileComponent</title>
<polygon fill="#ffffb3" stroke="black" points="339.86,-84.8 194.14,-84.8 194.14,-48.8 339.86,-48.8 339.86,-84.8"/>
<text text-anchor="middle" x="267" y="-62.6" font-family="Times,serif" font-size="14.00">UserProfileComponent</text>
</g>
<!-- UserProfileComponent&#45;&gt;AppModule -->
<g id="edge11" class="edge">
<title>UserProfileComponent&#45;&gt;AppModule</title>
<path fill="none" stroke="black" d="M267,-85.09C267,-107.01 267,-140.8 267,-140.8 267,-140.8 1151.27,-140.8 1151.27,-140.8"/>
<polygon fill="black" stroke="black" points="1151.27,-144.3 1161.27,-140.8 1151.27,-137.3 1151.27,-144.3"/>
</g>
<!-- VerifyEmailComponent -->
<g id="node12" class="node">
<title>VerifyEmailComponent</title>
<polygon fill="#ffffb3" stroke="black" points="175.8,-84.8 24.2,-84.8 24.2,-48.8 175.8,-48.8 175.8,-84.8"/>
<text text-anchor="middle" x="100" y="-62.6" font-family="Times,serif" font-size="14.00">VerifyEmailComponent</text>
</g>
<!-- VerifyEmailComponent&#45;&gt;AppModule -->
<g id="edge12" class="edge">
<title>VerifyEmailComponent&#45;&gt;AppModule</title>
<path fill="none" stroke="black" d="M100,-85.12C100,-108.46 100,-145.8 100,-145.8 100,-145.8 1151.11,-145.8 1151.11,-145.8"/>
<polygon fill="black" stroke="black" points="1151.11,-149.3 1161.11,-145.8 1151.11,-142.3 1151.11,-149.3"/>
</g>
<!-- AppComponent  -->
<g id="node15" class="node">
<title>AppComponent </title>
<polygon fill="#80b1d3" stroke="black" points="1257.44,-214.8 1148.56,-214.8 1148.56,-178.8 1257.44,-178.8 1257.44,-214.8"/>
<text text-anchor="middle" x="1203" y="-192.6" font-family="Times,serif" font-size="14.00">AppComponent </text>
</g>
<!-- AppModule&#45;&gt;AppComponent  -->
<g id="edge14" class="edge">
<title>AppModule&#45;&gt;AppComponent </title>
<path fill="none" stroke="black" stroke-dasharray="1,5" d="M1203,-149.91C1203,-149.91 1203,-168.79 1203,-168.79"/>
<polygon fill="black" stroke="black" points="1199.5,-168.79 1203,-178.79 1206.5,-168.79 1199.5,-168.79"/>
</g>
<!-- AppRoutingModule -->
<g id="node14" class="node">
<title>AppRoutingModule</title>
<polygon fill="#8dd3c7" stroke="black" points="2287.27,-84.8 2284.27,-88.8 2263.27,-88.8 2260.27,-84.8 2158.73,-84.8 2158.73,-48.8 2287.27,-48.8 2287.27,-84.8"/>
<text text-anchor="middle" x="2223" y="-62.6" font-family="Times,serif" font-size="14.00">AppRoutingModule</text>
</g>
<!-- AppRoutingModule&#45;&gt;AppModule -->
<g id="edge13" class="edge">
<title>AppRoutingModule&#45;&gt;AppModule</title>
<path fill="none" stroke="black" d="M2223,-85.12C2223,-108.46 2223,-145.8 2223,-145.8 2223,-145.8 1254.89,-145.8 1254.89,-145.8"/>
<polygon fill="black" stroke="black" points="1254.89,-142.3 1244.89,-145.8 1254.89,-149.3 1254.89,-142.3"/>
</g>
<!-- AuthService -->
<g id="node16" class="node">
<title>AuthService</title>
<ellipse fill="#fdb462" stroke="black" cx="2076" cy="-66.8" rx="59.11" ry="18"/>
<text text-anchor="middle" x="2076" y="-62.6" font-family="Times,serif" font-size="14.00">AuthService</text>
</g>
<!-- AuthService&#45;&gt;AppModule -->
<g id="edge15" class="edge">
<title>AuthService&#45;&gt;AppModule</title>
<path fill="none" stroke="black" d="M2076,-85.09C2076,-107.01 2076,-140.8 2076,-140.8 2076,-140.8 1254.81,-140.8 1254.81,-140.8"/>
<polygon fill="black" stroke="black" points="1254.81,-137.3 1244.81,-140.8 1254.81,-144.3 1254.81,-137.3"/>
</g>
<!-- CaseService -->
<g id="node17" class="node">
<title>CaseService</title>
<ellipse fill="#fdb462" stroke="black" cx="1940" cy="-66.8" rx="58.52" ry="18"/>
<text text-anchor="middle" x="1940" y="-62.6" font-family="Times,serif" font-size="14.00">CaseService</text>
</g>
<!-- CaseService&#45;&gt;AppModule -->
<g id="edge16" class="edge">
<title>CaseService&#45;&gt;AppModule</title>
<path fill="none" stroke="black" d="M1940,-84.83C1940,-105.57 1940,-136.8 1940,-136.8 1940,-136.8 1254.74,-136.8 1254.74,-136.8"/>
<polygon fill="black" stroke="black" points="1254.74,-133.3 1244.74,-136.8 1254.74,-140.3 1254.74,-133.3"/>
</g>
</g>
</svg>
