<?xml version="1.0" encoding="UTF-8" standalone="no"?>
<!DOCTYPE svg PUBLIC "-//W3C//DTD SVG 1.1//EN"
 "http://www.w3.org/Graphics/SVG/1.1/DTD/svg11.dtd">
<!-- Generated by graphviz version 2.47.3 (20210619.1520)
 -->
<!-- Title: dependencies Pages: 1 -->
<svg width="2319pt" height="247pt"
 viewBox="0.00 0.00 2319.00 246.80" xmlns="http://www.w3.org/2000/svg" xmlns:xlink="http://www.w3.org/1999/xlink">
<g id="graph0" class="graph" transform="scale(1 1) rotate(0) translate(4 242.8)">
<title>dependencies</title>
<polygon fill="white" stroke="transparent" points="-4,4 -4,-242.8 2315,-242.8 2315,4 -4,4"/>
<text text-anchor="middle" x="1155.5" y="-8.2" font-family="sans-serif" font-size="14.00">dependencies</text>
<g id="clust1" class="cluster">
<title>cluster_AppModule</title>
<polygon fill="none" stroke="black" stroke-dasharray="1,5" points="8,-32.8 8,-230.8 2303,-230.8 2303,-32.8 8,-32.8"/>
</g>
<g id="clust2" class="cluster">
<title>cluster_AppModule_declarations</title>
<polygon fill="none" stroke="black" points="446,-40.8 446,-92.8 2295,-92.8 2295,-40.8 446,-40.8"/>
</g>
<g id="clust15" class="cluster">
<title>cluster_AppModule_imports</title>
<polygon fill="none" stroke="black" points="294,-40.8 294,-92.8 438,-92.8 438,-40.8 294,-40.8"/>
</g>
<g id="clust17" class="cluster">
<title>cluster_AppModule_bootstrap</title>
<polygon fill="none" stroke="black" points="1090,-170.8 1090,-222.8 1214,-222.8 1214,-170.8 1090,-170.8"/>
</g>
<g id="clust18" class="cluster">
<title>cluster_AppModule_providers</title>
<polygon fill="none" stroke="black" points="16,-40.8 16,-92.8 286,-92.8 286,-40.8 16,-40.8"/>
</g>
<!-- AppComponent -->
<g id="node1" class="node">
<title>AppComponent</title>
<polygon fill="#ffffb3" stroke="black" points="2286.94,-84.8 2181.06,-84.8 2181.06,-48.8 2286.94,-48.8 2286.94,-84.8"/>
<text text-anchor="middle" x="2234" y="-62.6" font-family="Times,serif" font-size="14.00">AppComponent</text>
</g>
<!-- AppModule -->
<g id="node13" class="node">
<title>AppModule</title>
<polygon fill="#8dd3c7" stroke="black" points="1193.66,-149.8 1190.66,-153.8 1169.66,-153.8 1166.66,-149.8 1110.34,-149.8 1110.34,-113.8 1193.66,-113.8 1193.66,-149.8"/>
<text text-anchor="middle" x="1152" y="-127.6" font-family="Times,serif" font-size="14.00">AppModule</text>
</g>
<!-- AppComponent&#45;&gt;AppModule -->
<g id="edge1" class="edge">
<title>AppComponent&#45;&gt;AppModule</title>
<path fill="none" stroke="black" d="M2234,-85.12C2234,-108.46 2234,-145.8 2234,-145.8 2234,-145.8 1203.75,-145.8 1203.75,-145.8"/>
<polygon fill="black" stroke="black" points="1203.75,-142.3 1193.75,-145.8 1203.75,-149.3 1203.75,-142.3"/>
</g>
<!-- CaseListComponent -->
<g id="node2" class="node">
<title>CaseListComponent</title>
<polygon fill="#ffffb3" stroke="black" points="2163.32,-84.8 2032.68,-84.8 2032.68,-48.8 2163.32,-48.8 2163.32,-84.8"/>
<text text-anchor="middle" x="2098" y="-62.6" font-family="Times,serif" font-size="14.00">CaseListComponent</text>
</g>
<!-- CaseListComponent&#45;&gt;AppModule -->
<g id="edge2" class="edge">
<title>CaseListComponent&#45;&gt;AppModule</title>
<path fill="none" stroke="black" d="M2098,-85.09C2098,-107.01 2098,-140.8 2098,-140.8 2098,-140.8 1203.87,-140.8 1203.87,-140.8"/>
<polygon fill="black" stroke="black" points="1203.87,-137.3 1193.87,-140.8 1203.87,-144.3 1203.87,-137.3"/>
</g>
<!-- DashboardComponent -->
<g id="node3" class="node">
<title>DashboardComponent</title>
<polygon fill="#ffffb3" stroke="black" points="2014.97,-84.8 1873.03,-84.8 1873.03,-48.8 2014.97,-48.8 2014.97,-84.8"/>
<text text-anchor="middle" x="1944" y="-62.6" font-family="Times,serif" font-size="14.00">DashboardComponent</text>
</g>
<!-- DashboardComponent&#45;&gt;AppModule -->
<g id="edge3" class="edge">
<title>DashboardComponent&#45;&gt;AppModule</title>
<path fill="none" stroke="black" d="M1944,-84.83C1944,-105.57 1944,-136.8 1944,-136.8 1944,-136.8 1203.74,-136.8 1203.74,-136.8"/>
<polygon fill="black" stroke="black" points="1203.74,-133.3 1193.74,-136.8 1203.74,-140.3 1203.74,-133.3"/>
</g>
<!-- FooterComponent -->
<g id="node4" class="node">
<title>FooterComponent</title>
<polygon fill="#ffffb3" stroke="black" points="1854.88,-84.8 1737.12,-84.8 1737.12,-48.8 1854.88,-48.8 1854.88,-84.8"/>
<text text-anchor="middle" x="1796" y="-62.6" font-family="Times,serif" font-size="14.00">FooterComponent</text>
</g>
<!-- FooterComponent&#45;&gt;AppModule -->
<g id="edge4" class="edge">
<title>FooterComponent&#45;&gt;AppModule</title>
<path fill="none" stroke="black" d="M1796,-84.91C1796,-104.14 1796,-131.8 1796,-131.8 1796,-131.8 1203.76,-131.8 1203.76,-131.8"/>
<polygon fill="black" stroke="black" points="1203.76,-128.3 1193.76,-131.8 1203.76,-135.3 1203.76,-128.3"/>
</g>
<!-- ForgotPasswordComponent -->
<g id="node5" class="node">
<title>ForgotPasswordComponent</title>
<polygon fill="#ffffb3" stroke="black" points="1719.32,-84.8 1546.68,-84.8 1546.68,-48.8 1719.32,-48.8 1719.32,-84.8"/>
<text text-anchor="middle" x="1633" y="-62.6" font-family="Times,serif" font-size="14.00">ForgotPasswordComponent</text>
</g>
<!-- ForgotPasswordComponent&#45;&gt;AppModule -->
<g id="edge5" class="edge">
<title>ForgotPasswordComponent&#45;&gt;AppModule</title>
<path fill="none" stroke="black" d="M1633,-85.1C1633,-103.07 1633,-127.8 1633,-127.8 1633,-127.8 1203.84,-127.8 1203.84,-127.8"/>
<polygon fill="black" stroke="black" points="1203.84,-124.3 1193.84,-127.8 1203.84,-131.3 1203.84,-124.3"/>
</g>
<!-- HeaderComponent -->
<g id="node6" class="node">
<title>HeaderComponent</title>
<polygon fill="#ffffb3" stroke="black" points="1528.74,-84.8 1407.26,-84.8 1407.26,-48.8 1528.74,-48.8 1528.74,-84.8"/>
<text text-anchor="middle" x="1468" y="-62.6" font-family="Times,serif" font-size="14.00">HeaderComponent</text>
</g>
<!-- HeaderComponent&#45;&gt;AppModule -->
<g id="edge6" class="edge">
<title>HeaderComponent&#45;&gt;AppModule</title>
<path fill="none" stroke="black" d="M1468,-84.83C1468,-101.2 1468,-122.8 1468,-122.8 1468,-122.8 1203.96,-122.8 1203.96,-122.8"/>
<polygon fill="black" stroke="black" points="1203.96,-119.3 1193.96,-122.8 1203.96,-126.3 1203.96,-119.3"/>
</g>
<!-- MyCasesComponent -->
<g id="node7" class="node">
<title>MyCasesComponent</title>
<polygon fill="#ffffb3" stroke="black" points="1388.93,-84.8 1255.07,-84.8 1255.07,-48.8 1388.93,-48.8 1388.93,-84.8"/>
<text text-anchor="middle" x="1322" y="-62.6" font-family="Times,serif" font-size="14.00">MyCasesComponent</text>
</g>
<!-- MyCasesComponent&#45;&gt;AppModule -->
<g id="edge7" class="edge">
<title>MyCasesComponent&#45;&gt;AppModule</title>
<path fill="none" stroke="black" d="M1322,-84.99C1322,-99.98 1322,-118.8 1322,-118.8 1322,-118.8 1204.02,-118.8 1204.02,-118.8"/>
<polygon fill="black" stroke="black" points="1204.02,-115.3 1194.02,-118.8 1204.02,-122.3 1204.02,-115.3"/>
</g>
<!-- NewCaseModalComponent -->
<g id="node8" class="node">
<title>NewCaseModalComponent</title>
<polygon fill="#ffffb3" stroke="black" points="1237.52,-84.8 1066.48,-84.8 1066.48,-48.8 1237.52,-48.8 1237.52,-84.8"/>
<text text-anchor="middle" x="1152" y="-62.6" font-family="Times,serif" font-size="14.00">NewCaseModalComponent</text>
</g>
<!-- NewCaseModalComponent&#45;&gt;AppModule -->
<g id="edge8" class="edge">
<title>NewCaseModalComponent&#45;&gt;AppModule</title>
<path fill="none" stroke="black" d="M1152,-84.91C1152,-84.91 1152,-103.79 1152,-103.79"/>
<polygon fill="black" stroke="black" points="1148.5,-103.79 1152,-113.79 1155.5,-103.79 1148.5,-103.79"/>
</g>
<!-- SignInComponent -->
<g id="node9" class="node">
<title>SignInComponent</title>
<polygon fill="#ffffb3" stroke="black" points="1048.17,-84.8 929.83,-84.8 929.83,-48.8 1048.17,-48.8 1048.17,-84.8"/>
<text text-anchor="middle" x="989" y="-62.6" font-family="Times,serif" font-size="14.00">SignInComponent</text>
</g>
<!-- SignInComponent&#45;&gt;AppModule -->
<g id="edge9" class="edge">
<title>SignInComponent&#45;&gt;AppModule</title>
<path fill="none" stroke="black" d="M989,-84.99C989,-99.98 989,-118.8 989,-118.8 989,-118.8 1100.02,-118.8 1100.02,-118.8"/>
<polygon fill="black" stroke="black" points="1100.02,-122.3 1110.02,-118.8 1100.02,-115.3 1100.02,-122.3"/>
</g>
<!-- SignUpComponent -->
<g id="node10" class="node">
<title>SignUpComponent</title>
<polygon fill="#ffffb3" stroke="black" points="912.11,-84.8 787.89,-84.8 787.89,-48.8 912.11,-48.8 912.11,-84.8"/>
<text text-anchor="middle" x="850" y="-62.6" font-family="Times,serif" font-size="14.00">SignUpComponent</text>
</g>
<!-- SignUpComponent&#45;&gt;AppModule -->
<g id="edge10" class="edge">
<title>SignUpComponent&#45;&gt;AppModule</title>
<path fill="none" stroke="black" d="M850,-84.83C850,-101.2 850,-122.8 850,-122.8 850,-122.8 1100.33,-122.8 1100.33,-122.8"/>
<polygon fill="black" stroke="black" points="1100.33,-126.3 1110.33,-122.8 1100.33,-119.3 1100.33,-126.3"/>
</g>
<!-- UserProfileComponent -->
<g id="node11" class="node">
<title>UserProfileComponent</title>
<polygon fill="#ffffb3" stroke="black" points="769.86,-84.8 624.14,-84.8 624.14,-48.8 769.86,-48.8 769.86,-84.8"/>
<text text-anchor="middle" x="697" y="-62.6" font-family="Times,serif" font-size="14.00">UserProfileComponent</text>
</g>
<!-- UserProfileComponent&#45;&gt;AppModule -->
<g id="edge11" class="edge">
<title>UserProfileComponent&#45;&gt;AppModule</title>
<path fill="none" stroke="black" d="M697,-85.1C697,-103.07 697,-127.8 697,-127.8 697,-127.8 1100.01,-127.8 1100.01,-127.8"/>
<polygon fill="black" stroke="black" points="1100.01,-131.3 1110.01,-127.8 1100.01,-124.3 1100.01,-131.3"/>
</g>
<!-- VerifyEmailComponent -->
<g id="node12" class="node">
<title>VerifyEmailComponent</title>
<polygon fill="#ffffb3" stroke="black" points="605.8,-84.8 454.2,-84.8 454.2,-48.8 605.8,-48.8 605.8,-84.8"/>
<text text-anchor="middle" x="530" y="-62.6" font-family="Times,serif" font-size="14.00">VerifyEmailComponent</text>
</g>
<!-- VerifyEmailComponent&#45;&gt;AppModule -->
<g id="edge12" class="edge">
<title>VerifyEmailComponent&#45;&gt;AppModule</title>
<path fill="none" stroke="black" d="M530,-84.91C530,-104.14 530,-131.8 530,-131.8 530,-131.8 1100.22,-131.8 1100.22,-131.8"/>
<polygon fill="black" stroke="black" points="1100.22,-135.3 1110.22,-131.8 1100.22,-128.3 1100.22,-135.3"/>
</g>
<!-- AppComponent  -->
<g id="node15" class="node">
<title>AppComponent </title>
<polygon fill="#80b1d3" stroke="black" points="1206.44,-214.8 1097.56,-214.8 1097.56,-178.8 1206.44,-178.8 1206.44,-214.8"/>
<text text-anchor="middle" x="1152" y="-192.6" font-family="Times,serif" font-size="14.00">AppComponent </text>
</g>
<!-- AppModule&#45;&gt;AppComponent  -->
<g id="edge14" class="edge">
<title>AppModule&#45;&gt;AppComponent </title>
<path fill="none" stroke="black" stroke-dasharray="1,5" d="M1152,-149.91C1152,-149.91 1152,-168.79 1152,-168.79"/>
<polygon fill="black" stroke="black" points="1148.5,-168.79 1152,-178.79 1155.5,-168.79 1148.5,-168.79"/>
</g>
<!-- AppRoutingModule -->
<g id="node14" class="node">
<title>AppRoutingModule</title>
<polygon fill="#8dd3c7" stroke="black" points="430.27,-84.8 427.27,-88.8 406.27,-88.8 403.27,-84.8 301.73,-84.8 301.73,-48.8 430.27,-48.8 430.27,-84.8"/>
<text text-anchor="middle" x="366" y="-62.6" font-family="Times,serif" font-size="14.00">AppRoutingModule</text>
</g>
<!-- AppRoutingModule&#45;&gt;AppModule -->
<g id="edge13" class="edge">
<title>AppRoutingModule&#45;&gt;AppModule</title>
<path fill="none" stroke="black" d="M366,-84.83C366,-105.57 366,-136.8 366,-136.8 366,-136.8 1100.3,-136.8 1100.3,-136.8"/>
<polygon fill="black" stroke="black" points="1100.3,-140.3 1110.3,-136.8 1100.3,-133.3 1100.3,-140.3"/>
</g>
<!-- AuthService -->
<g id="node16" class="node">
<title>AuthService</title>
<ellipse fill="#fdb462" stroke="black" cx="219" cy="-66.8" rx="59.11" ry="18"/>
<text text-anchor="middle" x="219" y="-62.6" font-family="Times,serif" font-size="14.00">AuthService</text>
</g>
<!-- AuthService&#45;&gt;AppModule -->
<g id="edge15" class="edge">
<title>AuthService&#45;&gt;AppModule</title>
<path fill="none" stroke="black" d="M219,-85.09C219,-107.01 219,-140.8 219,-140.8 219,-140.8 1100.1,-140.8 1100.1,-140.8"/>
<polygon fill="black" stroke="black" points="1100.1,-144.3 1110.1,-140.8 1100.1,-137.3 1100.1,-144.3"/>
</g>
<!-- CaseService -->
<g id="node17" class="node">
<title>CaseService</title>
<ellipse fill="#fdb462" stroke="black" cx="83" cy="-66.8" rx="58.52" ry="18"/>
<text text-anchor="middle" x="83" y="-62.6" font-family="Times,serif" font-size="14.00">CaseService</text>
</g>
<!-- CaseService&#45;&gt;AppModule -->
<g id="edge16" class="edge">
<title>CaseService&#45;&gt;AppModule</title>
<path fill="none" stroke="black" d="M83,-85.12C83,-108.46 83,-145.8 83,-145.8 83,-145.8 1100.09,-145.8 1100.09,-145.8"/>
<polygon fill="black" stroke="black" points="1100.09,-149.3 1110.09,-145.8 1100.09,-142.3 1100.09,-149.3"/>
</g>
</g>
</svg>
